<svg preserveAspectRatio="xMidYMax meet" xmlns="http://www.w3.org/2000/svg"
  xmlns:xlink="http://www.w3.org/1999/xlink" viewBox="0 0 400 110.069">
  <path fill="currentColor" d="M0 74.07h42v36H0zm42-35h77v32H42zm0-39h77v19H42z"></path>
  <g aria-label="Featurist" font-size="65" font-family="Lato">
    <path
      d="M145.228 5.25v16.283h19.142v5.135h-19.142v20.02h-6.305V.115h28.697V5.25zM193.616 26.636q0-2.015-.585-3.673-.553-1.69-1.658-2.893-1.072-1.234-2.632-1.884-1.56-.683-3.543-.683-4.16 0-6.597 2.438-2.405 2.405-2.99 6.695zm4.68 15.437q-1.073 1.3-2.568 2.275-1.495.943-3.217 1.56-1.69.618-3.51.91-1.82.325-3.608.325-3.412 0-6.305-1.137-2.86-1.17-4.972-3.38-2.08-2.243-3.25-5.526-1.17-3.282-1.17-7.54 0-3.445 1.04-6.435 1.072-2.99 3.055-5.167 1.982-2.21 4.842-3.445 2.86-1.268 6.435-1.268 2.958 0 5.46 1.008 2.535.975 4.355 2.86 1.853 1.853 2.893 4.615 1.04 2.73 1.04 6.24 0 1.365-.293 1.82-.292.455-1.105.455h-22.002q.097 3.12.845 5.428.78 2.307 2.145 3.867 1.365 1.528 3.25 2.308 1.885.747 4.225.747 2.177 0 3.737-.487 1.593-.52 2.73-1.105 1.138-.585 1.885-1.073.78-.52 1.333-.52.715 0 1.105.553zM223.7 31.868q-3.997.13-6.824.65-2.795.487-4.583 1.3-1.755.813-2.567 1.917-.78 1.105-.78 2.47 0 1.3.422 2.243.423.942 1.138 1.56.747.585 1.722.877 1.008.26 2.145.26 1.528 0 2.795-.292 1.268-.325 2.373-.91 1.137-.585 2.145-1.397 1.04-.813 2.015-1.853zm-18.687-13.455q2.73-2.633 5.883-3.933 3.152-1.3 6.987-1.3 2.763 0 4.908.91 2.145.91 3.607 2.535 1.463 1.625 2.21 3.933.748 2.307.748 5.07v21.06h-2.568q-.845 0-1.3-.26-.455-.292-.715-1.105l-.65-3.12q-1.3 1.202-2.535 2.145-1.235.91-2.6 1.56-1.365.618-2.925.943-1.527.357-3.412.357-1.918 0-3.608-.52-1.69-.552-2.957-1.625-1.235-1.072-1.983-2.697-.715-1.658-.715-3.9 0-1.95 1.073-3.738 1.072-1.82 3.477-3.217 2.405-1.398 6.273-2.275 3.867-.91 9.49-1.04v-2.568q0-3.835-1.658-5.785-1.657-1.982-4.842-1.982-2.145 0-3.608.552-1.43.52-2.502 1.202-1.04.65-1.82 1.203-.748.52-1.495.52-.585 0-1.008-.292-.422-.325-.715-.78zM247.831 47.208q-3.9 0-6.012-2.178-2.08-2.177-2.08-6.272v-20.15h-3.965q-.52 0-.878-.293-.357-.325-.357-.975v-2.307l5.395-.682 1.332-10.173q.098-.488.423-.78.357-.325.91-.325h2.925v11.342h9.522v4.193h-9.522v19.76q0 2.08 1.007 3.087 1.008 1.008 2.6 1.008.91 0 1.56-.228.683-.26 1.17-.552.488-.292.813-.52.357-.26.617-.26.455 0 .813.552l1.69 2.763q-1.495 1.397-3.608 2.21-2.112.78-4.355.78zM288.155 13.765v32.923h-3.445q-1.235 0-1.56-1.202l-.455-3.543q-2.145 2.373-4.81 3.835-2.665 1.43-6.11 1.43-2.697 0-4.777-.877-2.048-.91-3.445-2.535-1.398-1.625-2.113-3.933-.682-2.307-.682-5.102V13.766h5.785V34.76q0 3.737 1.69 5.785 1.722 2.047 5.232 2.047 2.568 0 4.778-1.202 2.242-1.235 4.127-3.38V13.765zM302.757 20.363q1.56-3.38 3.835-5.265 2.275-1.918 5.558-1.918 1.04 0 1.982.228.975.227 1.723.715l-.423 4.322q-.195.813-.975.813-.455 0-1.332-.195-.878-.195-1.983-.195-1.56 0-2.795.455-1.202.455-2.177 1.365-.943.877-1.723 2.21-.747 1.3-1.365 2.99v20.8h-5.817V13.766h3.315q.942 0 1.3.357.357.358.487 1.235zM326.988 13.765v32.923h-5.785V13.766zm1.235-10.335q0 .845-.358 1.593-.325.715-.91 1.3-.552.552-1.332.877-.748.325-1.593.325t-1.592-.325q-.715-.325-1.268-.877-.552-.585-.877-1.3-.325-.748-.325-1.593t.325-1.592q.325-.78.877-1.333.553-.585 1.268-.91.747-.325 1.592-.325.845 0 1.593.325.78.325 1.332.91.585.553.91 1.333.358.747.358 1.592zM355.668 19.193q-.39.715-1.202.715-.488 0-1.105-.357-.618-.358-1.528-.78-.877-.456-2.112-.813-1.235-.39-2.925-.39-1.463 0-2.633.39-1.17.357-2.015 1.008-.812.65-1.267 1.527-.423.845-.423 1.853 0 1.267.715 2.112.748.845 1.95 1.462 1.203.618 2.73 1.105 1.528.455 3.12 1.008 1.625.52 3.153 1.17 1.527.65 2.73 1.625 1.202.975 1.917 2.405.748 1.397.748 3.38 0 2.275-.813 4.225-.812 1.917-2.405 3.348-1.592 1.397-3.9 2.21-2.307.812-5.33.812-3.445 0-6.24-1.105-2.795-1.137-4.745-2.892l1.365-2.21q.26-.423.618-.65.357-.228.91-.228.585 0 1.235.455.65.455 1.56 1.008.942.552 2.275 1.007 1.332.455 3.315.455 1.69 0 2.957-.422 1.268-.455 2.113-1.203.845-.747 1.235-1.722.422-.975.422-2.08 0-1.365-.747-2.243-.715-.91-1.918-1.527-1.202-.65-2.762-1.105l-3.153-1.008q-1.592-.52-3.152-1.17-1.528-.682-2.73-1.69-1.203-1.007-1.95-2.47-.715-1.495-.715-3.607 0-1.885.78-3.608.78-1.755 2.275-3.055 1.495-1.332 3.672-2.112 2.178-.78 4.973-.78 3.25 0 5.817 1.04 2.6 1.007 4.485 2.795zM374.784 47.208q-3.9 0-6.012-2.178-2.08-2.177-2.08-6.272v-20.15h-3.965q-.52 0-.878-.293-.357-.325-.357-.975v-2.307l5.395-.682 1.332-10.173q.098-.488.423-.78.357-.325.91-.325h2.925v11.342h9.522v4.193h-9.522v19.76q0 2.08 1.007 3.087 1.008 1.008 2.6 1.008.91 0 1.56-.228.683-.26 1.17-.552.488-.292.813-.52.357-.26.617-.26.455 0 .813.552l1.69 2.763q-1.495 1.397-3.608 2.21-2.112.78-4.355.78z"></path>
  </g>
</svg>
