<svg width="178" height="45" viewBox="0 0 178 45" fill="none" xmlns="http://www.w3.org/2000/svg">
  <g clip-path="url(#clip0_809_59945)">
    <path d="M75.4141 12.9434H60.1799V16.4877H65.6528V32.0652H69.9453V16.4877H75.4141V12.9434Z"
      fill="black" />
    <path
      d="M83.6557 20.9021C83.1686 20.1869 82.5069 19.6018 81.7306 19.1998C80.9543 18.7979 80.0878 18.5916 79.2096 18.5998C75.5314 18.5998 72.9485 21.4835 72.9485 25.5856C72.9485 29.6877 75.5314 32.5714 79.2096 32.5714C80.0881 32.5788 80.9547 32.3718 81.731 31.9692C82.5073 31.5665 83.1688 30.9809 83.6557 30.2652V32.065H87.4916V19.1062H83.6557V20.9021ZM80.2079 29.209C78.2152 29.209 76.7803 27.6663 76.7803 25.5658C76.7803 23.4654 78.2152 21.9187 80.2079 21.9187C82.2006 21.9187 83.6315 23.4654 83.6315 25.5658C83.6315 27.6663 82.2047 29.2288 80.2079 29.2288V29.209Z"
      fill="black" />
    <path d="M94.6216 12.9434H90.7858V32.0652H94.6216V12.9434Z" fill="black" />
    <path d="M101.752 12.9434H97.9158V32.0652H101.752V12.9434Z" fill="black" />
    <path
      d="M114.763 20.902C114.275 20.1871 113.614 19.6022 112.837 19.2003C112.061 18.7983 111.195 18.592 110.317 18.5998C106.634 18.5998 104.052 21.4835 104.052 25.5856C104.052 29.6876 106.634 32.5713 110.317 32.5713C111.195 32.5784 112.062 32.3713 112.838 31.9687C113.614 31.566 114.276 30.9806 114.763 30.2652V32.065H118.582V19.1062H114.747L114.763 20.902ZM111.311 29.209C109.318 29.209 107.887 27.6663 107.887 25.5658C107.887 23.4653 109.318 21.9187 111.311 21.9187C113.304 21.9187 114.739 23.4653 114.739 25.5658C114.739 27.6663 113.328 29.2288 111.307 29.2288L111.311 29.209Z"
      fill="black" />
    <path
      d="M149.301 26.3928C149.319 26.7562 149.261 27.1193 149.132 27.4604C149.003 27.8015 148.805 28.1138 148.55 28.3784C148.295 28.6431 147.988 28.8548 147.648 29.001C147.308 29.1471 146.941 29.2247 146.569 29.2291C145.061 29.2291 144.144 28.1136 144.144 26.5471V19.1064H140.312V27.2038C140.312 30.3169 142.305 32.5716 145.243 32.5716C146.076 32.5692 146.894 32.3613 147.622 31.9672C148.351 31.5731 148.966 31.0054 149.411 30.3169V32.0653H153.141V19.1064H149.301V26.3928Z"
      fill="black" />
    <path
      d="M172.591 18.6236C170.776 18.6236 169.038 19.4859 168.194 20.9021C167.454 19.4859 165.874 18.592 163.978 18.592C163.211 18.5747 162.453 18.7549 161.78 19.1145C161.107 19.4741 160.542 20.0005 160.142 20.641V19.1062H156.464V32.0651H160.296V24.6719C160.296 23.0263 161.241 21.9385 162.701 21.9385C164.16 21.9385 165.065 23.0263 165.065 24.6719V32.0651H168.901V24.6719C168.901 23.0896 169.899 21.9385 171.379 21.9385C172.858 21.9385 173.804 23.1252 173.804 24.6719V32.0651H177.64V23.9124C177.628 20.7992 175.574 18.6236 172.591 18.6236Z"
      fill="black" />
    <path d="M136.99 19.1064H133.154V32.0653H136.99V19.1064Z" fill="black" />
    <path
      d="M135.074 12.4367C134.627 12.4312 134.189 12.5558 133.815 12.7948C133.441 13.0337 133.148 13.3761 132.973 13.7784C132.799 14.1807 132.75 14.6248 132.834 15.0541C132.918 15.4834 133.131 15.8786 133.445 16.1894C133.759 16.5001 134.16 16.7124 134.598 16.7993C135.036 16.8861 135.49 16.8435 135.903 16.677C136.316 16.5105 136.669 16.2275 136.917 15.8641C137.165 15.5006 137.298 15.0732 137.297 14.6361C137.299 14.0562 137.066 13.4992 136.65 13.0869C136.233 12.6747 135.666 12.4409 135.074 12.4367Z"
      fill="black" />
    <path
      d="M130.506 18.9039C130.057 18.7316 129.582 18.6366 129.1 18.623C128.376 18.6425 127.67 18.8498 127.055 19.2237C126.44 19.5976 125.938 20.1248 125.599 20.7512V19.1056H121.917V32.0645H125.753V25.1776C125.753 23.2314 126.852 21.839 128.514 21.839C129.252 21.8724 129.979 22.0345 130.66 22.3177L131.003 22.4482V19.0859L130.506 18.896V18.9039Z"
      fill="black" />
    <path
      d="M12.4121 11.2067C13.226 10.411 14.3295 9.96409 15.4799 9.96409C16.6304 9.96409 17.7338 10.411 18.5478 11.2067L21.6157 14.2091L27.7514 8.20433L24.6835 5.20196C23.9983 4.52928 23.5638 3.65096 23.4494 2.70776C23.3351 1.76457 23.5476 0.811114 24.053 0.000218308C21.0168 -0.0128706 18.008 0.562732 15.2003 1.6938C12.3927 2.82486 9.84171 4.48899 7.69477 6.5901C5.54783 8.69121 3.84741 11.1877 2.69168 13.9354C1.53594 16.6832 0.947786 19.6277 0.961161 22.5991C1.78974 22.1046 2.76399 21.8966 3.72776 22.0084C4.69153 22.1203 5.58901 22.5456 6.27636 23.2162L9.34422 26.2186L15.4799 20.2138L12.4121 17.2115C11.599 16.4149 11.1424 15.335 11.1424 14.2091C11.1424 13.0832 11.599 12.0033 12.4121 11.2067Z"
      fill="black" />
    <path
      d="M33.8826 2.20312L27.7509 8.20392L36.7726 17.037L39.8364 20.0354C39.8655 20.0652 39.8926 20.0969 39.9173 20.1303C39.9496 20.158 39.986 20.1778 40.0183 20.2095C40.8325 21.0052 41.2903 22.0849 41.2911 23.211C41.2919 24.3371 40.8355 25.4174 40.0224 26.2142C39.2093 27.011 38.106 27.4591 36.9554 27.4598C35.8047 27.4605 34.7008 27.0139 33.8867 26.2182C33.8543 26.1865 33.8341 26.1509 33.8058 26.1193L33.7007 26.0441L30.6409 23.0457L21.6152 14.2087L15.4795 20.2134L36.8494 41.139C40.1974 38.9169 42.8873 35.8698 44.6476 32.3053C46.4079 28.7407 47.1764 24.7848 46.8755 20.8368C46.5745 16.8888 45.2149 13.0883 42.9337 9.81876C40.6525 6.54926 37.5304 3.92645 33.8826 2.21499V2.20312Z"
      fill="black" />
    <path
      d="M7.69544 38.4102C10.3322 40.9952 13.5734 42.9118 17.138 43.994C20.7026 45.0762 24.4831 45.2913 28.1519 44.6206L9.34457 26.2188L3.21289 32.2195C4.33733 34.5171 5.85316 36.6105 7.69544 38.4102Z"
      fill="black" />
  </g>
  <defs>
    <clipPath id="clip0_809_59945">
      <rect width="176.667" height="45" fill="black" transform="translate(0.960938)" />
    </clipPath>
  </defs>
</svg>
